<svg
  xmlns="http://www.w3.org/2000/svg"
  width="200"
  height="200"
  viewBox="0 0 200 200"
  class="site-logo__svg">
  <path
    class="site-logo__background"
    d="M 0,183.26415 16.735851,0 200,16.735842 183.26415,200 Z"
    fill="#4d4a83" />
  <path
    class="site-logo__figure"
    d="M 15.000001,18.038488 15,129.37823 45,146.69874 V 44.018958 c -0.006,-5.34704 -2.858465,-10.28645 -7.486327,-12.96484 l -0.01367,-0.0254 z"
    fill="#fff" />
  <path
    class="site-logo__figure"
    d="M 60,70 V 172.67969 L 90,190 V 95.980469 C 89.993712,90.633427 87.141534,85.694018 82.513672,83.015625 L 82.5,82.990234 Z"
    fill="#fff" />
  <path
    class="site-logo__figure"
    d="M 171.42322,117.00972 82.5,65.669883 82.500171,31.028967 163.92348,78.03873 c 4.62767,2.678718 7.47908,7.618734 7.4847,12.965774 l 0.0152,0.02456 z"
    fill="#fff" />
  <path
    class="site-logo__figure"
    d="m 105,95.980762 88.92322,51.339838 -1.7e-4,34.64092 -81.42331,-47.00977 c -4.62767,-2.67871 -7.47908,-7.61873 -7.4847,-12.96577 l -0.0152,-0.0246 z"
    fill="#fff" />
</svg>
